<svg width="23.000000" height="23.000000" viewBox="0 0 23 23" fill="none" xmlns="http://www.w3.org/2000/svg" xmlns:xlink="http://www.w3.org/1999/xlink">
	<defs>
		<clipPath id="clip3490_106">
			<rect id="envelope-open-regular 1" width="23.000000" height="23.000000" fill="white" fill-opacity="0"/>
		</clipPath>
	</defs>
	<rect id="envelope-open-regular 1" width="23.000000" height="23.000000" fill="#FFFFFF" fill-opacity="0"/>
	<g clip-path="url(#clip3490_106)">
		<path id="Vector" d="M22.21 7.39C22 7.21 17.19 3.34 16.14 2.5C15.14 1.71 13.45 0 11.5 0C9.55 0 7.87 1.69 6.85 2.5C5.75 3.38 0.97 7.23 0.78 7.38C0.54 7.58 0.34 7.84 0.2 8.13C0.07 8.41 0 8.73 0 9.05L0 20.84C0 22.03 0.96 23 2.15 23L20.84 23C22.03 23 23 22.03 23 20.84L23 9.05C23 8.73 22.92 8.42 22.79 8.13C22.65 7.84 22.46 7.59 22.21 7.39ZM20.84 20.57C20.84 20.64 20.81 20.71 20.76 20.76C20.71 20.81 20.64 20.84 20.57 20.84L2.42 20.84C2.35 20.84 2.28 20.81 2.23 20.76C2.18 20.71 2.15 20.64 2.15 20.57L2.15 9.17C2.15 9.09 2.19 9.02 2.25 8.97C2.96 8.39 7.14 5.03 8.2 4.19C9.01 3.54 10.43 2.15 11.5 2.15C12.56 2.15 14 3.56 14.79 4.19C15.85 5.03 20.03 8.39 20.74 8.97C20.77 8.99 20.8 9.02 20.81 9.06C20.83 9.1 20.84 9.14 20.84 9.18L20.84 20.57ZM19.4 12.14C19.59 12.37 19.56 12.71 19.32 12.9C18.02 13.95 16.66 15.04 16.14 15.45C15.12 16.27 13.44 17.96 11.5 17.96C9.54 17.96 7.84 16.25 6.85 15.45C6.35 15.05 4.98 13.95 3.67 12.9C3.43 12.71 3.4 12.37 3.59 12.14L4.27 11.3C4.46 11.08 4.8 11.04 5.03 11.23C6.31 12.26 7.66 13.34 8.2 13.77C8.99 14.4 10.43 15.81 11.5 15.81C12.56 15.81 13.98 14.42 14.79 13.77C15.33 13.34 16.68 12.26 17.96 11.23C18.19 11.04 18.53 11.08 18.72 11.31L19.4 12.14Z" fill="#FFFFFF" fill-opacity="1.000000" fill-rule="nonzero"/>
	</g>
</svg>
