<svg width="23.000000" height="24.000000" viewBox="0 0 23 24" fill="none" xmlns="http://www.w3.org/2000/svg" xmlns:xlink="http://www.w3.org/1999/xlink">
	<defs>
		<clipPath id="clip3490_104">
			<rect id="compass-regular 1" width="23.000000" height="24.000000" fill="white" fill-opacity="0"/>
		</clipPath>
	</defs>
	<rect id="compass-regular 1" width="23.000000" height="24.000000" fill="#FFFFFF" fill-opacity="0"/>
	<g clip-path="url(#clip3490_104)">
		<path id="Vector" d="M16.13 6.08L9.44 9.17C9.11 9.32 8.85 9.59 8.7 9.91L5.65 16.68C5.29 17.46 6.09 18.26 6.86 17.91L13.55 14.82C13.88 14.67 14.14 14.4 14.29 14.08L17.34 7.31C17.7 6.53 16.9 5.73 16.13 6.08ZM12.54 13.05C11.96 13.64 11.03 13.64 10.45 13.05C9.87 12.47 9.87 11.52 10.45 10.94C11.03 10.35 11.96 10.35 12.54 10.94C13.12 11.52 13.12 12.47 12.54 13.05ZM11.5 0.37C5.14 0.37 0 5.57 0 12C0 18.42 5.14 23.62 11.5 23.62C17.85 23.62 23 18.42 23 12C23 5.57 17.85 0.37 11.5 0.37ZM11.5 21.37C6.38 21.37 2.22 17.16 2.22 12C2.22 6.83 6.38 2.62 11.5 2.62C16.61 2.62 20.77 6.83 20.77 12C20.77 17.16 16.61 21.37 11.5 21.37Z" fill="#FFFFFF" fill-opacity="1.000000" fill-rule="nonzero"/>
	</g>
</svg>
