<svg width="21.000000" height="24.000000" viewBox="0 0 21 24" fill="none" xmlns="http://www.w3.org/2000/svg" xmlns:xlink="http://www.w3.org/1999/xlink">
	<path id="Vector" d="M6.93 13.5L5.06 13.5C4.75 13.5 4.5 13.24 4.5 12.93L4.5 11.06C4.5 10.75 4.75 10.5 5.06 10.5L6.93 10.5C7.24 10.5 7.5 10.75 7.5 11.06L7.5 12.93C7.5 13.24 7.24 13.5 6.93 13.5ZM12 12.93L12 11.06C12 10.75 11.74 10.5 11.43 10.5L9.56 10.5C9.25 10.5 9 10.75 9 11.06L9 12.93C9 13.24 9.25 13.5 9.56 13.5L11.43 13.5C11.74 13.5 12 13.24 12 12.93ZM16.5 12.93L16.5 11.06C16.5 10.75 16.24 10.5 15.93 10.5L14.06 10.5C13.75 10.5 13.5 10.75 13.5 11.06L13.5 12.93C13.5 13.24 13.75 13.5 14.06 13.5L15.93 13.5C16.24 13.5 16.5 13.24 16.5 12.93ZM12 17.43L12 15.56C12 15.25 11.74 15 11.43 15L9.56 15C9.25 15 9 15.25 9 15.56L9 17.43C9 17.74 9.25 18 9.56 18L11.43 18C11.74 18 12 17.74 12 17.43ZM7.5 17.43L7.5 15.56C7.5 15.25 7.24 15 6.93 15L5.06 15C4.75 15 4.5 15.25 4.5 15.56L4.5 17.43C4.5 17.74 4.75 18 5.06 18L6.93 18C7.24 18 7.5 17.74 7.5 17.43ZM16.5 17.43L16.5 15.56C16.5 15.25 16.24 15 15.93 15L14.06 15C13.75 15 13.5 15.25 13.5 15.56L13.5 17.43C13.5 17.74 13.75 18 14.06 18L15.93 18C16.24 18 16.5 17.74 16.5 17.43ZM21 5.25L21 21.75C21 22.99 19.99 24 18.75 24L2.25 24C1 24 0 22.99 0 21.75L0 5.25C0 4 1 3 2.25 3L4.5 3L4.5 0.56C4.5 0.25 4.75 0 5.06 0L6.93 0C7.24 0 7.5 0.25 7.5 0.56L7.5 3L13.5 3L13.5 0.56C13.5 0.25 13.75 0 14.06 0L15.93 0C16.24 0 16.5 0.25 16.5 0.56L16.5 3L18.75 3C19.99 3 21 4 21 5.25ZM18.75 21.46L18.75 7.5L2.25 7.5L2.25 21.46C2.25 21.62 2.37 21.75 2.53 21.75L18.46 21.75C18.62 21.75 18.75 21.62 18.75 21.46Z" fill="#FFFFFF" fill-opacity="1.000000" fill-rule="nonzero"/>
</svg>
